<svg xmlns="http://www.w3.org/2000/svg" viewBox="0 0 800 600" width="800" height="600"><g transform="translate(37.0 93.0) rotate(0.0 367.5 114.5) scale(1.0029926024178262 0.9991012451681021)"><svg width="732.807" height="229.206" viewBox="0 0 732.807 229.206"><path d="M66.481 33.787h600.658V223.37H66.481z" fill="#e2e3e7"/><path d="M263.572 0h206.476v223.37H263.572zm377.461 69.961h91.774V223.37h-91.774zM0 69.961h91.774V223.37H0z" fill="#eff0f2"/><path d="m263.24 68.16 103.57-45.403L470.381 68.16z" fill="#e2e3e7"/><path d="M284.42 61.943H449.2v28.156H284.42zm0 139.107H449.2v28.156H284.42z" fill="#e2e3e7"/><g fill="#d2d3da"><path d="M350.313 150.614h32.994v50.934h-32.994zm143.175 3.096h27.299v42.143h-27.299zm49.623 0h27.299v42.143h-27.299zm49.623 0h27.299v42.143h-27.299zm-71.947-33.512h-27.299v-13.037c0-7.538 6.111-13.65 13.65-13.65 7.538 0 13.65 6.111 13.65 13.65v13.037zm49.624 0h-27.299v-13.037c0-7.538 6.111-13.65 13.65-13.65 7.539 0 13.65 6.111 13.65 13.65v13.037zm49.623 0h-27.299v-13.037c0-7.538 6.111-13.65 13.65-13.65 7.539 0 13.65 6.111 13.65 13.65v13.037z"/></g><path d="M673.448 153.71h27.299v42.143h-27.299zm27.299-33.512h-27.299v-13.037c0-7.538 6.111-13.65 13.65-13.65 7.539 0 13.65 6.111 13.65 13.65v13.037zM28.679 153.71h27.299v42.143H28.679zm27.299-33.512H28.679v-13.037c0-7.538 6.111-13.65 13.65-13.65 7.538 0 13.65 6.111 13.65 13.65v13.037z" fill="#e2e3e7"/><path d="M111.959 153.71h27.299v42.143h-27.299zm49.624 0h27.299v42.143h-27.299zm49.623 0h27.299v42.143h-27.299zm-71.947-33.512H111.96v-13.037c0-7.538 6.111-13.65 13.65-13.65 7.538 0 13.65 6.111 13.65 13.65v13.037zm49.623 0h-27.299v-13.037c0-7.538 6.111-13.65 13.65-13.65 7.538 0 13.65 6.111 13.65 13.65v13.037zm49.623 0h-27.299v-13.037c0-7.538 6.111-13.65 13.65-13.65 7.538 0 13.65 6.111 13.65 13.65v13.037z" fill="#d2d3da"/><path d="M285.111 78.168h18.71v123.651h-18.71zm32.853 0h18.71v123.651h-18.71zm78.282 0h18.71v123.651h-18.71zm32.854 0h18.71v123.651H429.1zM273.845 213.253h185.931v15.953H273.845z" fill="#e2e3e7"/></svg></g><g transform="translate(79.0 477.0) rotate(0.0 191.5 13.0) translate(0.0 8.0) scale(1.260324459508375 1.3)"><svg width="303.89" height="13.846" viewBox="0 6.154 303.89 13.846"><path d="M20.03 20h263.86c11.046 0 20-8.954 20-20H0c0 11.046 8.954 20 20 20z" fill="#eff0f2"/></svg></g><g transform="translate(528.0 260.0) rotate(0.0 21.5 41.0) scale(0.6176119960357928 0.6270695205977044)"><svg width="69.623" height="130.767" viewBox="0 0 69.623 130.767"><path d="m69.597 128.925-.099-.286a1.492 1.492 0 0 0-1.06-.961l-5.362-1.296a4.476 4.476 0 0 1-2.538-1.679l-.508-.683h.791l.765-1.244c.284-.461.46-.968.563-1.487l.096-.046-.043-.17a4.503 4.503 0 0 0-.121-1.908l-3.017-10.509-3.506-13.871a15.05 15.05 0 0 0-2.337-5.028l-2.052-2.872.044-.051-4.245-19.704.218.033-1.185-6.138 3.716.505 1.385-10.184c.119-.031.24-.051.358-.085l3.49-1.085c.905-.261 1.455-1.147 1.269-2.043l-.016-.076a7.975 7.975 0 0 0-.457-1.496c.211-.702.187-1.754-.228-2.823l-2.632-5.509.911-6.699-4.397-.598-1.331-2.787-2.192-5.383a7.507 7.507 0 0 0-7.151-3.88l-.029-.217-2.921.394a11.152 11.152 0 0 0 2.72-2.453l.124-.157a1.298 1.298 0 0 0-.05-1.667 11.182 11.182 0 0 0 2.73-2.459l.124-.157a1.303 1.303 0 0 0-.075-1.706l-1.448-1.529c.206-.22.431-.42.62-.658l.124-.157a1.303 1.303 0 0 0-.075-1.706l-2.403-2.538A13.084 13.084 0 0 0 32.553.373l-.735-.229A2.846 2.846 0 0 0 30.3.096l-1.359.331a1.388 1.388 0 0 0-.783.521 1.384 1.384 0 0 0-1.223-.887l-1.398-.06a2.845 2.845 0 0 0-1.479.343l-.676.368a13.092 13.092 0 0 0-4.823 4.528l-1.86 2.96a1.303 1.303 0 0 0 .26 1.688l.152.129c.231.196.491.349.736.524l-1.121 1.782a1.305 1.305 0 0 0 .26 1.688l.153.129a11.172 11.172 0 0 0 3.157 1.879 1.3 1.3 0 0 0 .277 1.645l.152.129c.287.243.604.438.912.65l-1.359.423a6.674 6.674 0 0 0-3.673 2.851 7.515 7.515 0 0 0-5.085 3.87l-4.065 7.817.078.015-7.25 10.757c-.418.617-.397 1.682.222 2.096l.807.578c.147.625.399 1.231.787 1.777l.046.065c.546.77 1.59.997 2.407.523l3.816-2.216a14.068 14.068 0 0 0 3.192-2.541l-.508 2.51c-.257 1.269-.141 2.511.214 3.66l-1.402 2.627 3.25 1.734-.153 6.97.284.043c-.204 1.311-.167 2.819.147 4.572l6.712 22.821-.276 5.862a15.05 15.05 0 0 0 .764 5.491l4.161 17.747a4.5 4.5 0 0 0 1.131 2.137l3.203 3.386h.91v.059a2.72 2.72 0 0 1-1.138 2.212 2.717 2.717 0 0 0-1.129 1.998l-.083 1.046c-.01.129.055.231.148.306v1.126h11.478v-1.027h.001l-.001-.058v-.232h-.003l-.019-1.395a9.82 9.82 0 0 0-.929-4.034h.495l.835-1.357a4.511 4.511 0 0 0 .551-3.394l-4.552-19.45-.015-.002a15.048 15.048 0 0 0-1.024-3.26l-1.473-3.31.111-11.979 7.658 13.774.467 2.993 5.928 22.232a4.513 4.513 0 0 0 1.983 2.64l1.803 1.111h1.941l-.434 1.187a9.954 9.954 0 0 0-.604 3.506l.007.736h-.007v1.318h17.539v-1.318h-.08a.48.48 0 0 0 .146-.521z" fill="#c6c8d0"/></svg></g><g transform="translate(497.0 257.0) rotate(0.0 15.5 42.5) scale(0.6252647290183344 0.6359990422602658)"><svg width="49.579" height="133.648" viewBox="0 0 49.579 133.648"><path d="m44.242 48.933-1.069-3.623-.449-5.667a24.712 24.712 0 0 0-1.343-6.307l-1.933-5.457-.055-.005-1.102-3.249a6.4 6.4 0 0 0-6.374-3.238l-2.591.32-1.685.209v-1.208l2.715.013a1.282 1.282 0 0 0 1.287-1.282v-2.348l.645-.335a.64.64 0 0 0 .127-1.051l-1.004-.878c-.142-.178-.201-.411-.114-.628l.167-.416c.276-.263.547-.527.654-.847.226-.672-.261-1.584-.035-2.257.299-.889.97-1.697.725-2.455-.249-.77-1.364-1.14-1.886-1.822-.456-.596-.541-1.549-.9-2.201.003-.235-.043-.462-.201-.664-.403-.517-1.424-.335-2.07-.626-.606-.273-1.059-1.172-1.727-1.292-.712-.127-1.484.568-2.093.567-.537-.001-1.088-.142-1.627-.24C22.066.838 20.988 0 19.691 0c-1.471 0-2.664 1.077-2.664 2.406 0 .64.281 1.218.732 1.649-.801.209-1.718.197-2.425.571-.832.441-1.349 1.661-2.24 2.363-.824.649-2.142.857-2.805 1.661-.708.858-.615 2.133-.9 3.09-.26.872-.805 1.886-.416 2.875.342.868 1.517 1.386 2.072 2.188.61.881.673 2.136 1.199 2.75.739.862 2.03.935 2.914 1.434.021.012.039.03.059.042a9.057 9.057 0 0 0-3.754 1.454l-.391.268c-1.668 1.141-2.77 2.788-3.082 4.604l-.428 2.489-.183.456-2.509 4.583a24.75 24.75 0 0 0-2.333 6.011l-1.252 5.127-1.245 3.91c-.221.712.511 2.238 1.224 2.454l2.003.793c.143.048.293.07.448.076.111.01.219-.007.33-.017l.094-.012c.174-.025.338-.071.501-.146.512-.2.991-.549 1.325-.961l.846-.681c1.697 1.952 4.345 3.263 7.399 3.39l.262 1.09-3.393 8.143a12.574 12.574 0 0 0 .36 10.46l.811 1.622v15.42h.251v8.94l-.469 2.473a14.17 14.17 0 0 0 .813 8.023l5.881 14.324h-.068l.18 1.04-.332 1.725a9.543 9.543 0 0 0 .002 3.506l.16.875h.126v1.179h20.542v-1.318h-.079a.484.484 0 0 0 .145-.524l-.099-.286a1.492 1.492 0 0 0-1.06-.961l-5.362-1.296a4.472 4.472 0 0 1-2.538-1.679l-1.179-1.586 2.091-26.876.619-.775a9.399 9.399 0 0 0 1.959-4.538l.32-2.245h.289l2.525-17.393.053.192a.366.366 0 0 0 .244.251l.428.134a.61.61 0 0 0 .765-.4l.018-.06.252.791a.399.399 0 0 0 .272.263l.469.13a.658.658 0 0 0 .628-.157.428.428 0 0 0 .101.06l.479.193a.704.704 0 0 0 .916-.39l.057-.14a.42.42 0 0 0 .247.281l.479.193a.704.704 0 0 0 .916-.39l.076-.188a.425.425 0 0 0 .009-.292l-.252-.694h6.458V52.135h-4.81a13.782 13.782 0 0 0-.53-3.202zm-2.806 25.05-.013-.035h.007z" fill="#c6c8d0"/></svg></g><g transform="translate(525.0 483.0) rotate(0.0 94.0 10.0) translate(0.0 2.0) scale(1.0102801377850146 1.052133200063128)"><svg width="186.087" height="17.108" viewBox="0 1.901 186.087 17.108"><path d="M186.087 0c0 10.498-8.971 19.009-20.036 19.009H20.036C8.971 19.009 0 10.498 0 0z" fill="#eff0f2"/></svg></g><g transform="translate(232.0 309.0) rotate(0.0 86.0 92.0) scale(0.9977145376289198 0.9953155258403383)"><svg width="172.394" height="184.866" viewBox="0 0 172.394 184.866"><path d="m154.068 80.162-3.14 5.768-11.639 5.774-15.301-6.337 15.517-10.394 12.431-.591 2.127 3.858c.33.598.332 1.323.005 1.922z" fill="#c78982"/><path d="m148.047 84.711-21.113-8.428 17.26-42.639 21.114 8.428-2.557 1.274-14.093 36.855z" fill="#e8e9ec"/><path d="m138.012 74.232 3.547.908a2.27 2.27 0 0 0 2.673-1.359l.093-.234a.65.65 0 0 0-.362-.843l-3.473-1.385a1.224 1.224 0 0 0-1.589.683z" fill="#c78982"/><path d="m138.655 71.713-4.883 4.95a2.051 2.051 0 0 0 .149 3.018l1.11.923 7.348-7.508-1.434-1.404a1.624 1.624 0 0 0-2.29.021z" fill="#c78982"/><path d="m148.047 84.711-3.644-15.027 17.261-42.639 3.644 15.027z" fill="#93c3ff"/><path d="m153.546 75.67.215-10.86c.113-1.142.888-2.011 1.811-2.148l.015-.001a.594.594 0 0 1 .614.574l.82 7.53a2 2 0 0 1-.493 1.544z" fill="#c78982"/><path d="m153.396 78.108-2.914-8.468c-.286-1.112.142-2.194.961-2.64.005-.002.009-.005.014-.006a.594.594 0 0 1 .774.327l3.247 6.559a2 2 0 0 1-.297 2.215z" fill="#c78982"/><path d="m152.018 82.101-2.537-7.373c-.286-1.112.142-2.194.961-2.64.005-.002.009-.005.014-.006a.594.594 0 0 1 .774.327l2.764 5.584c.361.73.244 1.606-.296 2.215zm-12.773-6.22.373.519a8.606 8.606 0 0 1 1.292 7.353l-1.067 3.782-8.267-6.574z" fill="#c78982"/><path d="m130.328 80.909 8.961 10.795-15.711 10.205-24.5 5 .5-19 6-2.25 14-3.25z" fill="#016eea"/><path d="M92.433 103.981 56.207 58.589c-3.447-5.886-1.469-13.451 4.416-16.898l1.604-.94c3.672-2.15 10.243-1.031 12.393 2.641l32.022 50.454a8.625 8.625 0 0 1-2.272 11.642l-.188.134a8.623 8.623 0 0 1-11.749-1.641z" fill="#016eea"/><path d="m130.328 80.909-10.75 1.5-14 3.25-3.337 1.252-27.62-43.518c-2.151-3.672-8.721-4.791-12.393-2.641l-1.604.94c-5.885 3.447-7.863 11.012-4.416 16.898l36.226 45.392a8.62 8.62 0 0 0 11.191 2l15.601-3.184a23.44 23.44 0 0 0 8.079-3.308l11.985-7.785z" fill="#1d2445" opacity=".09"/><path d="m102.828 98.992 2.637.909a10.024 10.024 0 0 1 6.749 9.855l-.386 10.236-8.667-8.333z" fill="#c78982"/><path d="m126.828 136.659 20.926 25.461-14.963 13.645-18.768-20.653z" fill="#016eea"/><path d="m165.711 181.914 4.4-2.619c1.213-.722 2.058-1.958 2.245-3.284.274-1.949-.926-3.602-2.817-3.878l-8.342-1.218c-5.272-.77-9.62-3.839-11.917-8.41l-2.75-5.472-3.66 2.059c-.882.496-1.337 1.523-1.058 2.386l.8 2.472-5.019 1.969c-3.399 1.334-7.004.718-9.286-1.585l-3.523-3.556c-.617-.623-1.795-.156-1.976.783l-3.083 15.995.433 3.766z" fill="#93c3ff"/><path d="m118.344 178.608.523 1.583c.941 2.848 3.551 4.666 6.699 4.667l33.473.008c.643 0 1.299-.165 1.905-.481l7.998-4.168-27.561-.007c-.488 0-.93-.191-1.232-.531-1.516-1.711-3.736-2.668-6.187-2.669l-14.375-.004c-.825-.001-1.49.856-1.243 1.602z" fill="#d4e7ff"/><path d="m51.406 134.721-49.663-3.779 3.248-25.053A72.585 72.585 0 0 1 15.169 77.16l16.839-26.242c1.036-1.682 6.822-3.329 8.784-3.104l8.63 1.103 4.564.523c17.811 3.857 23.6 19.878 14.701 39.683z" fill="#016eea"/><path d="M76.653 77.597V46.709l-3.455-6.492-4.763-1.773c-15.75-3.986-32.183 3.318-39.777 17.68l-9.24 17.474 41.646 10.441z" fill="#016eea"/><path d="m67.529 107.209 2.984-4.583c3.262-4.884 8.15-8.399 13.166-9.258 4.024-.689 8.03.67 10.97 3.451l3.684 3.486c.449.425.853.899 1.207 1.415 8.106 11.814 43.62 53.939 43.62 53.939l-26 18.667s-25.665-33.041-26.285-33.789l-7.918-9.549z" fill="#013b84"/><path d="m51.731 72.226-10.829-2.803c-1.739-.737-3.436 1.125-2.542 2.789l8.092 15.049z" fill="#002652" opacity=".07"/><path d="m58.92 15.91 20.833 3.735-6.872 40.715c-.167.989-1.446 1.28-2.025.462L55.08 38.66z" fill="#c78982"/><path d="m70.186 15.811 25.254 3.791a13.716 13.716 0 0 0-9.026-14.979L80.17 2.434c-3.934-1.379-8.151 1.162-8.769 5.284z" fill="#002652"/><path d="m82.623 11.741-.857 5.712 5.091.764-2.868 19.108 1.91.287 10.759-12.134a1.999 1.999 0 0 0 .454-1.767l-2.359-10.455z" fill="#002652"/><g fill="#c78982"><path d="m91.723 20.639-3.156 21.897c-.454 2.577-3.287 3.965-5.6 2.743L61.508 33.945z"/><path d="m87.161 34.506 4.327.544c1.803.227 3.012-1.802 1.954-3.28l-4.625-6.466zm-6.2-29.424-.496-.088a3.857 3.857 0 0 0-4.467 3.131l-2.32 13.193 17.592 3.094.65-3.695c1.29-7.344-3.616-14.344-10.959-15.635z"/><path d="m80.718 19.964 11.028 1.94L89.28 35.92l-11.028-1.939z"/><path d="m76.653 1.89-5.241-.787c-5.727-.86-11.053 2.829-11.913 8.556l-3.891 25.926 27.044 4.059a6.36 6.36 0 0 0 7.233-5.345l1.844-12.284c1.469-9.788-5.288-18.656-15.076-20.125z"/></g><path d="m91.088 24.667-2.537-.381a1.122 1.122 0 0 0-.834.207l-1.215.898c-.805.595-.489 1.866.501 2.015l3.07.461" fill="#002652" opacity=".07"/><path d="m88.24 5.953-1.764 11.751a4.184 4.184 0 0 1-4.758 3.516l-4.17-.626a4.042 4.042 0 0 0-4.597 3.397L71.48 33.79a3.64 3.64 0 0 1-6.527 1.623L53.987 19.22a2.021 2.021 0 0 1 .424-2.826L66.167 4.947a13.35 13.35 0 0 1 14.12-2.359z" fill="#002652"/><path d="M75.397 1.412 66.633.125c-6.102-.916-11.792 3.288-12.708 9.391l-2.858 19.04a3 3 0 0 0 1.819 3.217l13.358 5.529a3 3 0 0 0 4.114-2.327l7.214-33.217z" fill="#002652"/><path d="m69.482 18.454.343.052a4.809 4.809 0 0 1 4.042 5.47l-1.376 9.164-3.457-2.897a6.142 6.142 0 0 1-2.197-4.782l.058-4.804a2.252 2.252 0 0 1 2.587-2.203z" fill="#c78982"/><path d="m86.139 36.227.29.892c.159.489.512.89.976 1.111l1.594.759.366-2.291z" fill="#002652" opacity=".07"/><path d="M1.743 130.942h23.752l-21.333 30.05-.58-.966a25.128 25.128 0 0 1-3.406-15.899z" fill="#013b84"/><path d="m.475 145.024 74.353-47.509c5.333-3.408 12.449-1.242 14.978 4.56 3.257 7.473 6.915 16.026 6.683 16.21 0 0-42.921 41.273-57.933 54.246-4.112 3.553-9.722 4.039-11.316 3.938C11.028 175.447-1.107 161.19.475 145.024z" fill="#013b84"/><path d="M81.717 106.641 39.248 67.028c-4.27-5.319-3.418-13.092 1.9-17.362l1.45-1.164c3.318-2.663 9.982-2.516 12.646.802l39.049 45.235a8.625 8.625 0 0 1-.547 11.849l-.166.16a8.624 8.624 0 0 1-11.863.093z" fill="#016eea"/><path d="m87.247 88.891.763 18.429a1.475 1.475 0 0 0 1.849 1.365l6.234-1.642a9.448 9.448 0 0 1 9.864 3.336l2.076 2.67-.333-7.782a15.69 15.69 0 0 0-12.434-14.682z" fill="#016eea"/></svg></g><g transform="translate(404.0 405.0) rotate(0.0 51.0 54.0) scale(0.9991379985894523 0.9955476894997373)"><svg width="102.088" height="108.483" viewBox="0 0 102.088 108.483"><path d="M53.442 99.494H28.104a9.86 9.86 0 0 1-9.225-13.339l21.08-55.909a4.334 4.334 0 0 1 4.082-2.836c2.328 0 4.213 1.745 4.384 4.059zm-9.797-64.853L23.556 87.919c-.571 1.516-.37 3.147.551 4.479s2.378 2.096 3.997 2.096H48.06z" fill="#016eea"/><path d="M84.928 104.259H43.746c-5.655 0-10.074-4.876-9.529-10.502l6.054-62.605a25.125 25.125 0 0 1 4.983-12.751 25.11 25.11 0 0 1 20.06-9.977 25.1 25.1 0 0 1 20.917 11.232 24.323 24.323 0 0 1 2.385 4.507l1.986 4.915 2.346 5.811 7.827 42.503c3.237 20.853 1.381 26.867-15.847 26.867z" fill="#2888ff"/><path d="M1.5 93.636h53.156c4.779 0 8.653 2.988 8.653 6.673 0 3.686-3.874 6.673-8.653 6.673H1.5z" fill="#93c3ff"/><path d="M54.656 108.483H1.5a1.5 1.5 0 0 1 0-3h53.156c3.944 0 7.153-2.32 7.153-5.173s-3.209-5.174-7.153-5.174H1.5a1.5 1.5 0 0 1 0-3h53.156c5.599 0 10.153 3.667 10.153 8.174s-4.554 8.173-10.153 8.173z" fill="#68abff"/><path d="M11.167 77.316H60.31a8 8 0 0 1 0 16H11.167z" fill="#93c3ff"/><path d="M60.31 94.817H11.167a1.5 1.5 0 0 1 0-3H60.31c3.584 0 6.5-2.916 6.5-6.5s-2.916-6.5-6.5-6.5H11.167a1.5 1.5 0 0 1 0-3H60.31c5.238 0 9.5 4.262 9.5 9.5s-4.262 9.5-9.5 9.5z" fill="#68abff"/><g fill="#016eea"><path d="M52.693 18.874c-2.39-2.378-5.544-4.062-10.186-6.167-2.101-.952-4.564-2.369-4.969-4.895C36.429.9 48.466-2.106 52.778 1.599c.294.252.563.533.805.835.848 1.055 1.742 1.963 2.606 2.841 2.085 2.117 4.241 4.306 5.266 8.126l-4.83 1.295c-.683-2.547-2.073-3.958-3.998-5.912-.907-.922-1.936-1.966-2.941-3.217-.795-.99-2.602-.702-3.663-.469-.205.045-3.941 1.477-3.435 1.919.24.21.786.595 1.984 1.139 5.163 2.341 8.724 4.266 11.648 7.177z"/><path d="M95.202 36.341c0 5.159-3.329 10.006-8.653 11.593-8.634 2.579-13.841-5.587-17.608-13.763l-3.572-7.738c-2.793-6.044-12.664-7.081-18.913-9.388 4.147-5.48 11.283-8.843 18.534-9.515a25.1 25.1 0 0 1 23.243 11.125l4.37 9.422 1.47 3.173c.399.866.691 1.742.876 2.638.175.818.253 1.636.253 2.453z"/></g></svg></g><g transform="translate(185.0 505.0) rotate(0.0 42.5 8.5) scale(1.1538409328464576 1.2128995433789955)"><svg width="73.667" height="14.016" viewBox="0 0 73.667 14.016"><path d="M38.26 1.945h-2.853L0 10.422v3.594h73.667v-3.594z" fill="#d2d3da"/><path d="M69.35 1.789c-16.131-1.573-32.046-3.082-32.517 0-.47-3.082-16.386-1.573-32.517 0L0 10.422c17.736-2.949 36.473-6.438 36.833 0 .361-6.438 19.097-2.949 36.833 0z" fill="#e8e9ec"/></svg></g><g transform="translate(84.0 322.0) rotate(0.0 95.0 93.0) scale(0.9959898304196263 0.9984700861583058)"><svg width="190.765" height="186.285" viewBox="0 0 190.765 186.285"><path d="M81.34 3.235c1.416-.399 2.946 1.26 4.312 1.034 1.451-.24 2.726-2.353 4.115-2.331 1.445.023 2.573 2.169 3.946 2.55 1.338.372 3.436-.882 4.701-.098 1.139.705 1.008 3.144 2.084 4.237 1.213 1.233 3.865 1.092 4.995 2.344 1.166 1.292.705 3.858 1.678 5.228 1.003 1.412 3.606 1.899 4.289 3.456.676 1.541-.738 3.712-.487 5.458.23 1.599 2.24 3.273 2.022 5.094-.213 1.778-2.501 3.153-2.958 4.852-.466 1.734.806 4.095.062 5.689-.756 1.62-3.366 2.127-4.433 3.541-1.062 1.407-.853 4.073-2.248 5.215-1.336 1.093-3.894.375-5.556 1.17-1.432.685-2.241 3.158-3.866 3.691-1.548.507-3.668-.997-5.309-.673-1.628.322-3.028 2.523-4.668 2.623-1.682.102-3.302-1.915-4.914-2.092-1.691-.185-3.749 1.405-5.267.862-1.27-.401-1.925-2.704-3.222-3.14-1.276-.429-3.245.99-4.502.486-1.26-.505-1.665-2.874-2.86-3.494-1.207-.627-3.413.376-4.506-.41-1.096-.788-.812-3.165-1.747-4.155-1.203-1.275-3.882-1.566-4.829-3.187-.901-1.542.132-4.051-.49-5.786-.613-1.711-3.008-2.986-3.306-4.772-.304-1.822 1.553-3.78 1.623-5.562.073-1.866-1.588-4.02-1.053-5.708.416-1.313 2.758-2.022 3.266-3.384.493-1.322-.796-3.431-.175-4.712.625-1.289 3.049-1.535 3.844-2.696.812-1.186.216-3.579 1.248-4.54 1.033-.962 3.313-.161 4.611-.805 1.324-.657 2.008-2.959 3.305-3.196 1.392-.254 2.868 1.686 4.237 1.799 1.368.113 3.065-1.585 4.421-1.227 1.322.349 2.052 2.695 3.372 3.163 1.301.46 2.96-.992 4.265-.524z" fill="#1d2445"/><path d="m190.675 159.061-.489-4.001a19.1 19.1 0 0 0-13.017-15.836l-87.564-28.659-3.686 17.248c-1.863 24.916.056 42.039 24.897 44.727l67.983-.055c7.185-.005 12.747-6.293 11.876-13.424z" fill="#016eea"/><path d="m174.278 163.459-.489-4.001a19.1 19.1 0 0 0-13.017-15.836l-87.564-28.659-3.686 17.248c-1.863 24.916.056 42.039 24.897 44.727l67.983-.055c7.186-.005 12.747-6.293 11.876-13.424z" fill="#1a7cec"/><path d="m54.03 121.513-12.71-.218c-1.981.031-3.634-2.269-3.653-4.25l-.606-52.717 25.655 1.89zm94.463-3.51 9.228-7.362c1.628-1.129 1.494-5.61-1.2-9.616l-30.476-38.728-19.751 16.483z" fill="#93c3ff"/><path d="m114.795 52.491-57.596-10.83a20.002 20.002 0 0 0-16.69 5.707c-2.202 2.205-3.4 5.222-3.383 8.338l.089 16.682 42.456 19.203 59.592-11.372-11.012-18.361a20.006 20.006 0 0 0-13.456-9.367z" fill="#93c3ff"/><path d="M88.44 62.81V30.448H71.012v18.751l15.539 14.365c.681.718 1.889.236 1.889-.754z" fill="#99644c"/><path d="m70.167 42.683 8.802 8.688a1.71 1.71 0 0 0 1.216.492l9.66-.097a1.708 1.708 0 0 0 1.448-.831l2.666-4.462a14.598 14.598 0 0 0 2.067-7.489v-.526c0-6.183-5.012-11.195-11.195-11.195h-3.47c-6.183 0-11.195 5.012-11.195 11.195v4.225z" fill="#99644c"/><path d="M81.922 40.37h-5.134v-1.542c0-1.008.817-1.826 1.826-1.826h5.133v1.542a1.825 1.825 0 0 1-1.825 1.826zm7.09-2.5v1.602l-.114 4.971a2.001 2.001 0 0 1-1.867 1.95l-1.845.122 2.547 2.497s.962-.237 1.997.302c1.102.574 1.493 1.917 1.564 1.62.072-.302 1.369-2.464 2.587-4.453a14.591 14.591 0 0 0 2.148-7.616l.005-4.252z" fill="#1d2445" opacity=".07"/><path d="M83.635 22.97c.983.815.725 2.337 1.879 2.844 1.174.517 3.305-.762 4.343-.089 1.021.662.447 2.773 1.034 4.046.544 1.179 2.729 1.794 3.005 3.04.281 1.265-1.372 3.106-.912 4.287.448 1.151 2.684 1.113 3.731 2.04.429.38.069 2.63 1.074 3.316.788.539 2.68-.633 3.491-.219 1.191.607 2.441 2.586 2.909 2.191.478-.403.063-2.509.898-3.101.721-.512 2.755.441 3.317-.134.753-.77-.427-1.823-.787-2.556-.525-1.068.745-3.018.22-4.086s-2.845-1.254-3.37-2.322.745-3.018.22-4.086c-.319-.649-2.448-.005-3.219-.566-.664-.483-.336-2.61-1.063-3.028-.825-.474-2.677.784-3.239.396-.313-.216.016-2.536-1.001-3.339-.713-.563-2.697.432-3.428-.081-1.117-.783-1.919-3.083-2.286-2.926-.912.39-1.037 2.619-1.949 3.01-.912.39-2.611-1.058-3.523-.668s-.432 1.641-1.344 2.031z" fill="#1d2445"/><path d="M88.474 23.872c-.618 1.461-3.208 2.147-4.086 3.282-.921 1.19-.375 3.535-1.343 4.669-.946 1.11-3.489 1.131-4.246 2.483-.842 1.503.623 3.751.338 5.347-.291 1.631-2.42 2.836-2.853 4.42-.416 1.523.641 3.923-.57 5.271-.451.502-2.314-.501-2.841-.085-.525.416-.292 2.91-1.637 3.003-.85.059-.788-1.437-1.791-1.537-.893-.089-2.525.948-3.103.581-.974-.62.164-2.614-.993-3.732-.781-.755-2.049-.179-2.795-.952-1.216-1.261-.53-2.601-.397-2.873.853-1.736-.213-4.356.569-6.062.808-1.764 3.393-2.482 4.458-4.029 1.059-1.537.936-4.31 2.583-5.449 1.093-.755 3.322.135 4.415-.62s1.048-3.156 2.14-3.911c1.093-.755 3.322.135 4.415-.62.768-.531 1.268-2.385 2.157-2.192.801.173.968 2.418 1.777 2.823.819.409 3.064-.115 3.803.183z" fill="#1d2445"/><path d="M54.342 68.685s4.231 46.91 6.799 62.388c1.492 8.99 7.965 35.569 7.965 35.569l1.442-.598a6.065 6.065 0 0 0 2.351-1.738l4.272-5.162a55.513 55.513 0 0 1 35.686-19.666l25.892-3.101 7.798-7.303-8.858-9.312a26.942 26.942 0 0 0-5.119-4.198c-3.315-2.098-8.442-5.473-8.442-6.285 0-1.2-2.4-8.398-2.4-8.398l7.798-11.399-17.596-26.795-28.394 9.198z" fill="#93c3ff"/><path d="m31.876 146.732-5.245 11.909a5.813 5.813 0 0 1-3.767 3.332L16 163.919c-.743.21-1.506.339-2.276.385l-1.566.095-.059.103-11.594.692a.498.498 0 0 0-.505.492v.012c.077.779.774 1.464 1.726 1.606l9.732.669 8.725 2.981a1.468 1.468 0 0 1 .631 2.469l-4.702 4.529a1.312 1.312 0 0 0-.106 1.926c.23.222.582.254.849.078l12.289-7.349-.01-.012a9.418 9.418 0 0 0 4.556-6.423l.069-.404 2.703-5.789z" fill="#99644c"/><path d="m54.367 118.852-.996 7.879a37.479 37.479 0 0 1-2.493 9.485l-9.479 23.167a5.335 5.335 0 0 1-6.323 3.131l-9.307-2.506 4.023-29.624a37.467 37.467 0 0 1 4.52-13.411l5.781-10.209a4.855 4.855 0 0 1 6.224-2.032l.193.087a13.535 13.535 0 0 1 7.857 14.033z" fill="#93c3ff"/><path d="m117.008 70.266-1.724 5.015a6.727 6.727 0 0 0 2.128 7.414l4.263 3.451a9.774 9.774 0 0 1 3.467 9.346l-.147.808 8.283 7.396-4.142-11.537zm-68.412-.067 8.458 7.217.385 19.059-11.93-23.86c-.974-1.95 1.429-3.831 3.087-2.416z" opacity=".07"/><g fill="#99644c"><path d="M158.388 179.746c1.034-.314 2.595-.963 2.374-1.868l-2.936-9.445-5.24-.213c1.375 3.944 3.09 7.583 4.982 11.062.102.245.521.59.807.47l.013-.006z"/><path d="M161.222 177.247c1.034-.314 2.595-.963 2.374-1.868l-2.936-9.445-5.24-.213 4.983 11.062c.102.245.521.59.806.47a.049.049 0 0 1 .013-.006z"/><path d="M164.296 175.342c1.034-.314 2.595-.963 2.374-1.868l-2.936-9.445-5.24-.213 4.983 11.062c.102.245.521.59.806.47l.013-.006z"/><path d="M166.985 173.212c.954-.227 2.399-.744 2.214-1.655l-2.503-9.566-4.8-.63 4.347 11.327c.089.25.466.624.73.529l.012-.005z"/><path d="m164.05 166.541-7.447 3.357c-1.706.769-3.922-.655-4.33-2.481l-1.383-6.807a7.778 7.778 0 0 1 .325-4.472l.906-2.374 10.682-1.113 3.538 7.746a4.65 4.65 0 0 1-2.291 6.144z"/><ellipse cx="158.863" cy="165.897" rx="6.756" ry="7.387" transform="matrix(.9096 -.4155 .4155 .9096 -54.5641 80.9956)"/></g><path d="m140.747 110.467.057 7.941a37.47 37.47 0 0 0 1.354 9.713l6.426 26.583a2.365 2.365 0 0 0 2.618 1.788l13.077-1.777-.492-29.892a37.437 37.437 0 0 0-2.903-13.851l-3.398-8.21c-1.017-2.427-4.769-6.093-7.278-5.301a13.536 13.536 0 0 0-9.461 13.006z" fill="#93c3ff"/><path d="m163.673 184.16-2.948-6.164-2.276.166a.92.92 0 0 0-.732 1.373l3.504 6.151a1.186 1.186 0 0 0 1.608.449l.263-.146c.645-.361.9-1.161.581-1.829zm3.601-18.814.616-.037a1.416 1.416 0 0 1 1.473 1.135l.411 2.057c.049.245.047.498-.007.743l-.578 2.614-3.482-2.649z" fill="#99644c"/></svg></g><g transform="translate(695.0 306.0) rotate(0.0 -78.5 97.0) scale(-0.9994016321438121 0.997434434110201)"><svg width="157.094" height="194.499" viewBox="0 0 157.094 194.499"><path d="m138.059 122.112-25.979 8.174-65.822 35.379s7.626 15.206 7.418 14.657l70.579-25.961a19.524 19.524 0 0 0 3.291-1.573l19.143-11.456a10.607 10.607 0 0 0 3.632-14.586 10.607 10.607 0 0 0-12.262-4.634z" fill="#013b84"/><path d="M81.547 170.573h32.21l37.974-25.251a12.014 12.014 0 0 0 4.093-15.377 15.621 15.621 0 0 0-20.706-7.109l-53.571 25.6z" fill="#013b84"/><path d="M43.592 130.203h72.527v23.97H43.592z" fill="#013b84"/><path d="M75.547 170.573h-32.21L5.363 145.322a12.013 12.013 0 0 1-4.093-15.377 15.621 15.621 0 0 1 20.706-7.109l53.571 25.6z" fill="#013b84"/><path d="M155.824 129.945a15.621 15.621 0 0 0-20.706-7.109l-1.234.59-21.54 6.777H43.592v2.961l-21.616-10.328a15.621 15.621 0 0 0-20.706 7.109 12.013 12.013 0 0 0 4.093 15.377l37.974 25.251h5.386c2.209 4.391 5.082 10.089 4.953 9.749l27.871-10.252v.5h32.21l37.974-25.251a12.014 12.014 0 0 0 4.093-15.374z" fill="#1d2445" opacity=".2"/><path d="M79.265 48.133H63.656V7.93A7.93 7.93 0 0 1 71.586 0h4.9a2.776 2.776 0 0 1 2.776 2.776v45.357z" fill="#002652"/><g fill="#93c3ff"><path d="m44.682 52.68-20.3 53.484 5.948 5.38.158.013a10 10 0 0 0 10.146-6.279l20.682-52.2zm69.665.295 7.493 48.125-5.64 12.435-.157-.02a10 10 0 0 1-8.626-8.245L97.99 49.923z"/><path d="m55.61 43.878 48.634-.256a11.236 11.236 0 0 1 11.3 11.29l-.095 19.647-71.011-.293V55.114A11.235 11.235 0 0 1 55.61 43.878z"/><path d="m52.958 73.457.075 31.166a19.993 19.993 0 0 1-1.249 7.006l-7.124 19.2 68.477.622-6.2-19.8a20 20 0 0 1-.914-5.978V73.9z"/><path d="m66.921 43.622-13.508 29.94 53.156.022-13.577-29.962zM24.953 194.361a7.823 7.823 0 0 1-7.385-2.576l-6.558-7.6a4.552 4.552 0 0 1 2.257-7.22L40.233 169l7.054 15.166-9.65 7.778z"/></g><path d="M27.765 192.154a7.823 7.823 0 0 1-7.385-2.576l-6.558-7.6a4.552 4.552 0 0 1 2.257-7.22l26.966-7.958 7.055 15.163-9.65 7.778z" fill="#016eea"/><path d="m40.725 170.6 5.113 10.623 10.619-5.111a3.86 3.86 0 0 0 1.8-5.152L56.5 167.3a3.86 3.86 0 0 0-5.152-1.8z" fill="#93c3ff"/><path d="m39.435 176.84-3.213-6.94 11.226-5.2 1.185 2.561a3.911 3.911 0 0 1-1.543 5z" fill="#016eea"/><path d="m43.458 185.532-4.319-9.33 8.713-2.623a3.912 3.912 0 0 1 4.677 2.1l2.155 4.655z" fill="#016eea"/><path d="M131.874 194.361a7.823 7.823 0 0 0 7.385-2.576l6.558-7.6a4.552 4.552 0 0 0-2.257-7.22L116.594 169l-7.054 15.17 9.65 7.778z" fill="#93c3ff"/><path d="m18.768 122.112 25.979 8.174 65.822 35.379s-7.626 15.206-7.418 14.657l-70.579-25.961a19.524 19.524 0 0 1-3.291-1.573l-19.143-11.456a10.607 10.607 0 0 1-3.632-14.586 10.608 10.608 0 0 1 12.262-4.634z" fill="#013b84"/><path d="M129.062 192.154a7.823 7.823 0 0 0 7.385-2.576l6.558-7.6a4.552 4.552 0 0 0-2.257-7.22l-26.966-7.958-7.054 15.166 9.65 7.778z" fill="#016eea"/><path d="m116.1 170.6-5.113 10.623-10.619-5.111a3.86 3.86 0 0 1-1.8-5.152l1.765-3.667a3.86 3.86 0 0 1 5.152-1.8z" fill="#93c3ff"/><path d="m117.393 176.84 3.213-6.941-11.226-5.2-1.185 2.561a3.911 3.911 0 0 0 1.543 5z" fill="#016eea"/><path d="m113.37 185.532 4.319-9.33-8.713-2.623a3.912 3.912 0 0 0-4.677 2.1l-2.155 4.655z" fill="#016eea"/><path d="M107.19 96.923H71.9a19.034 19.034 0 0 1-19.033-19.034v-4.432l28-4 26.323 4z" fill="#93c3ff"/><path d="M76.191 8.194a2.5 2.5 0 0 1-2.165-3.746 7.089 7.089 0 0 1 4.822-3.167 8.016 8.016 0 0 1 6.435 1.282 2.5 2.5 0 1 1-3 4 3.086 3.086 0 0 0-2.428-.385 2.521 2.521 0 0 0-1.5.762 2.5 2.5 0 0 1-2.164 1.254z" fill="#80b6f4"/><path d="m75.994 35.72 23.291-8.329v-7.72A14.46 14.46 0 0 0 84.824 5.21h-4.1a14.46 14.46 0 0 0-14.465 14.461v6.314a9.736 9.736 0 0 0 9.735 9.735z" fill="#002652"/><path d="M89.346 56.453V26.224H71.918v17.428l14 14.2a2 2 0 0 0 3.428-1.399z" fill="#99644c"/><path d="m72.073 38.459 8.8 8.688a1.711 1.711 0 0 0 1.216.492l9.661-.1a1.705 1.705 0 0 0 1.447-.831l2.666-4.462a14.6 14.6 0 0 0 2.067-7.49v-8.72H72.072v12.42z" fill="#99644c"/><path d="M83.827 36.146h-5.134V34.6a1.826 1.826 0 0 1 1.826-1.826h5.134v1.546a1.826 1.826 0 0 1-1.826 1.826zm7.09-5.5v4.6l-.156 6.8-3.671.243 2.547 2.5a3.09 3.09 0 0 1 2 .3c1.1.574 1.493 1.917 1.564 1.62s1.371-2.466 2.589-4.457a14.594 14.594 0 0 0 2.146-7.612v-7.252z" opacity=".07"/><path d="M71.493 23.8h.147a2.494 2.494 0 0 1 2.486 2.486v6.886a2.494 2.494 0 0 1-2.486 2.486h-.147a2.494 2.494 0 0 1-2.486-2.486v-6.89a2.494 2.494 0 0 1 2.486-2.482z" fill="#99644c"/><ellipse cx="85.571" cy="27.261" fill="#002652" rx="13.714" ry="6.389"/><path d="m65 117.91-34.209-15.059a4.75 4.75 0 0 0-5.115.562l-.823.668a9.566 9.566 0 0 0-1.4 13.456l1.174 1.447a4.748 4.748 0 0 0 2.9 1.69l29.108 4.914z" fill="#99644c"/><path d="M95.253 127.212v.011a.472.472 0 0 1-.389.535l-8.5 1.351a6.241 6.241 0 0 1-2.74-.173l-3.908-1.1-2.249 1.146a3.537 3.537 0 0 1-2.54.271l-7.34-1.941-.06-.016a7.753 7.753 0 0 0-.773-.141v-.01l-15.646-2.485 10.74-6.891c1.941-2.232 3.514-2.362 5.617-2.552l3.7-.324a7.509 7.509 0 0 1 3.87.81 8.629 8.629 0 0 0 2.319.822c2.286.486 5.871 1.325 5.871 1.325a1.408 1.408 0 0 1 .975 1.35v.135a1.373 1.373 0 0 1-1.47 1.265c-.763-.049-5.309-.292-6.73-.341h-.011a.55.55 0 0 0-.519.357.516.516 0 0 0 .168.589l1.405 1.1 8.487 3.563 7.881-.12a1.859 1.859 0 0 1 1.837 1.443z" fill="#99644c"/><path d="M81.4 132.89H39.309a3.424 3.424 0 0 1-3.424-3.424h48.942a3.424 3.424 0 0 1-3.427 3.424z" fill="#2888ff"/><path d="M119.734 132.89H54.672a1.611 1.611 0 0 1-1.558-2.282l12.562-39.571a3.4 3.4 0 0 1 3.008-2.283h65.062a1.612 1.612 0 0 1 1.558 2.283l-12.563 39.571a3.4 3.4 0 0 1-3.007 2.282z" fill="#2888ff"/><path d="M93.409 116.34h-1.9c-2.522 0-3.916-2.045-3.116-4.566l.6-1.9a6.806 6.806 0 0 1 6.015-4.566h1.9c2.521 0 3.916 2.045 3.116 4.566l-.6 1.9a6.807 6.807 0 0 1-6.015 4.566z" fill="#93c3ff"/><path d="M117.338 114.431c0 .007 0 .016.011.021a2.9 2.9 0 0 0 3.385.961L131.089 111a1.122 1.122 0 0 0 .666-.838l.238-1.355a1.871 1.871 0 0 0-1.519-2.168l-.53-.093a1.124 1.124 0 0 0-.763.138l-11.5 6.761a.738.738 0 0 0-.343.986z" fill="#99644c"/><path d="M118.42 118.82a.04.04 0 0 0 .012.021 2.9 2.9 0 0 0 3.385.961l10.355-4.416a1.123 1.123 0 0 0 .665-.838l.239-1.354a1.873 1.873 0 0 0-1.519-2.169l-.529-.093a1.127 1.127 0 0 0-.764.138l-11.5 6.761a.738.738 0 0 0-.344.989z" fill="#99644c"/><path d="M120.4 123.211a.043.043 0 0 0 .013.019 2.725 2.725 0 0 0 3.265.537l9.206-5.23a1.055 1.055 0 0 0 .533-.855l.078-1.291a1.761 1.761 0 0 0-1.651-1.864l-.5-.031a1.053 1.053 0 0 0-.7.211l-10.027 7.544a.693.693 0 0 0-.217.96z" fill="#99644c"/><path d="M121.628 126.417a.042.042 0 0 0 .011.017 2.514 2.514 0 0 0 2.993.6l7.331-3.661a.975.975 0 0 0 .517-.771l.113-1.188a1.622 1.622 0 0 0-1.464-1.768l-.463-.044a.973.973 0 0 0-.651.172l-8.16 5.768a.641.641 0 0 0-.227.875z" fill="#99644c"/></svg></g></svg>